<?xml version="1.0" encoding="UTF-8"?>
<svg id="Layer_1" xmlns="http://www.w3.org/2000/svg" width="62.62mm" height="31.75mm" version="1.1" viewBox="0 0 177.5 90">
  <!-- Generator: Adobe Illustrator 29.6.1, SVG Export Plug-In . SVG Version: 2.1.1 Build 9)  -->
  <defs>
    <style>
      .st0 {
        fill: #fff;
      }
    </style>
  </defs>
  <g>
    <path class="st0" d="M56.59,79.05c.13-.98,3.39-27.37-15.74-34.29-.03-.01-.03-.06,0-.05,1.86.41,10.23,2.54,14.4,8.19.02.02.06,0,.05-.02-.46-1.43-4.27-12.86-12.3-21.61-.02-.03,0-.06.03-.04,2.31,2.21,10.71,10.62,14.26,18.93.01.03.05.02.05,0,.09-1.28.99-14.25,1.3-26.1.06-2.34-.2-4.6-.43-6.78,0-.03.04-.04.05-.01.26.9,1.04,3.76,1.44,6.94.5,3.89,1.02,8.25,1.07,10,0,.08.11.11.15.04.68-1.16,3.76-6.16,7.71-9.36.03-.02.06.01.04.04-.96,1.1-4.67,5.63-6.86,12.78-1.66,5.42-.9,11.82-1.04,20.05,0,.03.04.04.05.02.55-1.07,5.48-10.32,17.11-19.81.03-.02.06.01.04.04-1.52,1.8-11.41,13.71-12.23,19.8,0,.03.03.04.05.02.64-.6,6.71-6.17,13.34-7.35.03,0,.05.04.02.06-2.32.93-18.77,8.27-16.58,28.54,0,.02-.01.03-.03.03h-5.95s-.03-.01-.03-.03Z"/>
    <path class="st0" d="M64.83,67.13c.79-.65,4.93-3.63,10.15.19.07.05.08.16,0,.21-.78.64-5,3.71-10.11.5-.06-.04-.04-.13.03-.13l7.52-.32s.13-.09,0-.16c-.12-.06-6.42-.15-7.56-.17-.06,0-.09-.08-.04-.12Z"/>
    <path class="st0" d="M65.7,63.02c.56-.84,3.6-4.86,9.63-2.73.08.03.12.13.07.2-.55.83-3.65,4.95-9.39,3.37-.07-.02-.07-.11,0-.14l7-2.46s.1-.12-.05-.15c-.13-.03-6.1,1.7-7.18,2.01-.06.02-.11-.05-.07-.1Z"/>
    <path class="st0" d="M72.1,56.35c.89-.48,5.49-2.57,9.78,2.21.06.06.04.17-.04.21-.89.47-5.58,2.63-9.87-1.52-.05-.05,0-.13.06-.12l7.34,1.18s.15-.06.03-.16c-.11-.09-6.18-1.42-7.28-1.67-.06-.01-.07-.1-.02-.13Z"/>
    <path class="st0" d="M77.07,52.89c.88-.49,5.44-2.65,9.79,2.05.06.06.04.17-.03.21-.88.48-5.52,2.71-9.87-1.36-.05-.05-.01-.13.06-.12l7.34,1.06s.15-.06.02-.16c-.11-.09-6.18-1.32-7.29-1.55-.06-.01-.07-.09-.02-.13Z"/>
    <path class="st0" d="M80.95,49.57c.63-.72,3.99-4.08,9.35-1.29.07.04.09.14.04.2-.63.71-4.05,4.17-9.2,1.93-.06-.03-.05-.12.01-.13l6.86-1.39s.11-.1-.03-.15c-.12-.04-5.91.8-6.97.94-.06,0-.1-.06-.06-.11Z"/>
    <path class="st0" d="M81.22,45.73c.38-.87,2.56-5.1,8.51-4.08.08.01.13.1.1.18-.38.86-2.58,5.2-8.18,4.64-.06,0-.08-.09-.03-.13l6.11-3.41s.07-.13-.07-.13c-.13,0-5.39,2.56-6.35,3.02-.05.03-.11-.03-.09-.08Z"/>
    <path class="st0" d="M74.58,42.96c.57-.77,3.63-4.4,9.21-2.07.08.03.1.13.05.19-.56.76-3.68,4.49-9.01,2.69-.06-.02-.06-.11,0-.13l6.72-1.96s.1-.11-.04-.15c-.13-.03-5.83,1.29-6.87,1.52-.06.01-.1-.05-.06-.1Z"/>
    <path class="st0" d="M70.17,52.16c-.07-.83-.16-5,4.87-6.69.07-.02.14.02.15.1.07.82.18,5.09-4.38,6.99-.05.02-.1-.04-.07-.08l3.29-5.18s0-.13-.11-.07c-.1.05-3.09,4.22-3.64,4.97-.03.04-.1.02-.1-.03Z"/>
    <path class="st0" d="M76.59,49.88c-.07-.52-.27-3.15,2.85-4.39.04-.02.09.01.1.06.07.52.28,3.21-2.53,4.56-.03.02-.07-.02-.05-.05l1.9-3.38s0-.08-.07-.04c-.06.04-1.81,2.77-2.13,3.26-.02.03-.06.02-.06-.01Z"/>
    <path class="st0" d="M63.97,73.54c.37.14,2.17.94,1.88,3.43,0,.03-.04.06-.07.04-.37-.14-2.21-.95-2.11-3.28,0-.03.04-.04.05-.01l1.55,2.45s.06.03.05-.03c0-.05-1.18-2.17-1.39-2.56-.01-.02,0-.05.03-.04Z"/>
    <path class="st0" d="M65.01,70.05c1.04-.04,6.24.07,8.08,6.41.02.09-.04.18-.13.18-1.03.04-6.35-.05-8.47-5.81-.02-.07.05-.13.11-.09l6.27,4.37s.16,0,.1-.14c-.06-.13-5.09-4.07-6-4.79-.05-.04-.02-.12.04-.12Z"/>
    <path class="st0" d="M72.22,70.78c.9-.06,5.38-.05,7.08,5.38.02.07-.03.15-.11.16-.89.05-5.48.07-7.41-4.86-.02-.06.04-.11.09-.08l5.49,3.65s.14,0,.08-.12c-.05-.11-4.47-3.42-5.27-4.03-.04-.03-.02-.1.03-.11Z"/>
    <path class="st0" d="M76.19,68.64c.76-.31,4.63-1.61,7.67,2.58.04.06.02.14-.05.17-.75.3-4.7,1.65-7.8-2.04-.04-.04,0-.11.06-.09l5.8,1.56s.12-.04.04-.13c-.08-.08-4.85-1.65-5.71-1.94-.05-.02-.05-.08,0-.1Z"/>
    <path class="st0" d="M74.28,64.55c.1-.54.79-3.18,4.25-3.35.05,0,.09.04.08.09-.1.53-.79,3.24-4,3.63-.04,0-.06-.04-.03-.07l2.99-2.68s.02-.08-.06-.07c-.07.01-2.7,2.11-3.18,2.49-.03.02-.06,0-.06-.04Z"/>
    <path class="st0" d="M76.66,66.12c.35-.58,2.28-3.33,6.36-2.04.06.02.08.08.05.13-.35.57-2.31,3.4-6.18,2.46-.04-.01-.05-.07,0-.09l4.61-1.8s.06-.09-.04-.1c-.09-.01-4.03,1.27-4.74,1.5-.04.01-.07-.03-.05-.07Z"/>
    <path class="st0" d="M81.57,61.15c.59-.63,3.73-3.56,8.48-.86.06.04.08.13.03.18-.59.62-3.79,3.63-8.37,1.44-.05-.02-.04-.11.01-.12l6.24-1.03s.1-.09-.02-.14c-.11-.04-5.36.53-6.32.63-.05,0-.08-.06-.05-.1Z"/>
    <path class="st0" d="M84.7,57.97c.3-.45,1.96-2.62,5.22-1.44.04.02.06.07.04.11-.3.45-1.99,2.68-5.09,1.79-.04-.01-.04-.06,0-.07l3.8-1.31s.06-.07-.03-.08c-.07-.01-3.31.9-3.89,1.06-.03,0-.06-.03-.04-.06Z"/>
    <path class="st0" d="M85.79,52.07c.45-.16,2.76-.83,4.45,1.71.02.03,0,.08-.03.1-.45.16-2.81.85-4.54-1.4-.02-.03,0-.06.04-.05l3.37,1.06s.07-.02.02-.07c-.04-.05-2.81-1.09-3.31-1.29-.03-.01-.03-.05,0-.06Z"/>
    <path class="st0" d="M84.52,64.2c.38-.4,2.37-2.26,5.39-.56.04.02.05.08.02.11-.37.39-2.4,2.31-5.32.93-.03-.02-.03-.07,0-.07l3.96-.66s.07-.06-.01-.09c-.07-.03-3.41.34-4.02.4-.03,0-.05-.04-.03-.06Z"/>
    <path class="st0" d="M80.08,72.93c.59-.03,3.56,0,4.66,3.6.01.05-.02.1-.07.1-.59.03-3.63.02-4.88-3.26-.01-.04.03-.07.06-.05l3.62,2.45s.09,0,.05-.08c-.03-.07-2.94-2.29-3.46-2.69-.03-.02-.01-.07.02-.07Z"/>
    <path class="st0" d="M84.8,72.77c.62-.04,3.7-.06,4.88,3.67.02.05-.02.1-.07.11-.61.04-3.76.07-5.11-3.31-.02-.04.03-.08.06-.05l3.79,2.49s.1,0,.06-.08c-.04-.07-3.08-2.33-3.63-2.74-.03-.02-.02-.07.02-.07Z"/>
    <path class="st0" d="M85.95,70.73c.46-.21,2.83-1.14,4.85,1.38.03.03.02.09-.02.1-.46.21-2.88,1.17-4.92-1.03-.02-.03,0-.07.03-.06l3.65.79s.08-.03.02-.08c-.05-.05-3.06-.88-3.61-1.04-.03,0-.03-.05,0-.06Z"/>
    <path class="st0" d="M82.29,67.19c.68-.52,4.22-2.92,8.48.45.06.05.06.14,0,.18-.67.52-4.28,2.99-8.46.13-.05-.03-.03-.11.03-.11l6.29-.06s.12-.07,0-.14c-.1-.06-5.36-.31-6.31-.36-.05,0-.07-.07-.03-.1Z"/>
    <path class="st0" d="M85.67,40.19c.23-.33,1.47-1.88,3.83-.97.03.01.04.05.03.08-.23.32-1.49,1.92-3.73,1.23-.03,0-.03-.05,0-.05l2.79-.9s.04-.05-.02-.06c-.05-.01-2.42.61-2.85.72-.02,0-.04-.02-.03-.04Z"/>
    <path class="st0" d="M78.97,37.78c.66-.85,4.21-4.85,10.41-2.07.08.04.11.15.06.22-.66.83-4.27,4.95-10.21,2.77-.07-.02-.07-.13,0-.14l7.61-2.01s.12-.12-.04-.17c-.14-.04-6.59,1.28-7.76,1.52-.07.01-.11-.06-.07-.12Z"/>
    <path class="st0" d="M86.58,33.65c.15-.37,1.02-2.16,3.52-1.79.03,0,.06.04.04.07-.15.36-1.03,2.2-3.37,2.02-.03,0-.04-.04-.01-.05l2.52-1.49s.03-.06-.03-.06c-.05,0-2.23,1.12-2.62,1.33-.02.01-.05-.01-.04-.03Z"/>
    <path class="st0" d="M80.46,34.25c.12-1.16,1.07-6.89,8.38-7.91.1-.01.19.07.18.17-.12,1.15-1.06,7.01-7.78,8.44-.08.02-.13-.08-.08-.14l5.83-6.24s.04-.18-.14-.13c-.15.05-5.31,4.98-6.26,5.88-.05.05-.14,0-.13-.07Z"/>
    <path class="st0" d="M61.73,52.38c-.28-.69-1.45-4.2,2.36-6.95.05-.04.13-.02.15.04.27.68,1.49,4.27-1.87,7.07-.04.03-.1,0-.09-.05l1.43-5.25s-.03-.11-.11-.03c-.07.07-1.51,4.39-1.78,5.17-.01.04-.08.04-.09,0Z"/>
    <path class="st0" d="M61.5,44.63c-.15-.68-.68-4.11,3.29-6.06.05-.03.12,0,.13.06.14.67.7,4.18-2.85,6.25-.04.02-.09-.02-.07-.06l2.15-4.64s-.01-.11-.1-.05c-.08.05-2.1,3.82-2.47,4.51-.02.04-.08.03-.09-.01Z"/>
    <path class="st0" d="M66.34,46.68c-.45-.81-2.42-4.97,1.88-8.94.06-.05.15-.04.19.03.44.8,2.48,5.05-1.25,9.01-.04.05-.12,0-.11-.05l.98-6.7s-.06-.13-.15-.02c-.08.1-1.21,5.65-1.42,6.65-.01.06-.09.07-.11.02Z"/>
    <path class="st0" d="M71.12,41.94c-.39-.89-2.07-5.45,2.82-9.22.07-.05.17-.03.2.05.39.88,2.13,5.54-2.17,9.35-.05.04-.13,0-.11-.07l1.66-6.95s-.05-.15-.15-.04c-.09.1-1.81,5.82-2.12,6.86-.02.06-.1.06-.12,0Z"/>
    <path class="st0" d="M76.19,36.4c-.44-.96-2.33-5.88,2.91-10.04.07-.06.18-.03.22.05.43.95,2.39,5.97-2.2,10.18-.05.05-.14,0-.13-.07l1.69-7.56s-.05-.16-.17-.04c-.1.1-1.87,6.34-2.19,7.47-.02.06-.1.07-.13,0Z"/>
    <path class="st0" d="M81.59,27.63c-.14-.61-.63-3.69,2.91-5.46.05-.02.11,0,.12.06.13.6.66,3.75-2.52,5.62-.04.02-.08-.02-.06-.06l1.9-4.17s-.01-.1-.09-.04c-.07.05-1.85,3.44-2.18,4.06-.02.03-.07.03-.08-.01Z"/>
    <path class="st0" d="M63.57,36.45c.42-.82,2.79-4.76,8.48-3.39.08.02.12.11.08.18-.42.81-2.83,4.86-8.19,3.96-.06-.01-.08-.1-.02-.12l6.11-2.9s.08-.12-.06-.13c-.12-.01-5.37,2.13-6.32,2.51-.05.02-.1-.03-.08-.09Z"/>
    <path class="st0" d="M65.38,31.58c.37-.39,2.32-2.22,5.29-.55.04.02.05.08.02.11-.37.39-2.36,2.27-5.22.91-.03-.02-.03-.07,0-.07l3.89-.65s.06-.06-.01-.09c-.07-.03-3.35.34-3.94.4-.03,0-.05-.04-.03-.06Z"/>
    <path class="st0" d="M67.48,27.92c.64-.55,4-3.09,8.36.02.06.04.06.13,0,.18-.64.54-4.06,3.16-8.31.56-.05-.03-.03-.11.03-.11l6.19-.37s.11-.08,0-.14c-.1-.05-5.29-.03-6.23-.03-.05,0-.08-.07-.04-.1Z"/>
    <path class="st0" d="M70.42,24.24c.65-1.04,4.23-6.03,11.65-3.59.1.03.15.15.09.24-.65,1.03-4.29,6.15-11.33,4.37-.08-.02-.09-.14-.01-.17l8.45-3.19s.12-.15-.07-.19c-.16-.03-7.37,2.24-8.68,2.65-.07.02-.13-.06-.09-.12Z"/>
    <path class="st0" d="M69.1,22.31c-.28-.99-1.36-5.99,4.31-9.2.08-.04.18,0,.2.08.27.98,1.4,6.09-3.65,9.44-.06.04-.13-.02-.11-.08l2.76-7.01s-.03-.16-.15-.06c-.11.09-2.75,5.81-3.23,6.84-.03.06-.11.05-.13-.01Z"/>
    <path class="st0" d="M74.24,19.34c.08-.5.66-2.94,3.84-3.17.04,0,.08.04.07.08-.09.49-.66,2.99-3.6,3.42-.03,0-.06-.04-.03-.06l2.7-2.53s.02-.08-.05-.06c-.07.02-2.44,2-2.87,2.36-.02.02-.06,0-.05-.03Z"/>
    <path class="st0" d="M61.66,29.36c-.45-.85-2.4-5.2,2.14-9.22.06-.05.16-.04.2.03.44.84,2.46,5.28-1.49,9.31-.04.05-.13,0-.12-.06l1.15-6.92s-.06-.14-.15-.03c-.08.1-1.37,5.83-1.61,6.87-.01.06-.09.07-.12.01Z"/>
    <path class="st0" d="M66.42,24.44c-.49-.6-2.75-3.73.2-7.66.04-.05.12-.06.16,0,.48.59,2.81,3.79.33,7.63-.03.04-.1.03-.1-.03l-.21-5.68s-.07-.1-.12,0c-.05.09-.14,4.84-.17,5.71,0,.05-.06.07-.09.03Z"/>
    <path class="st0" d="M68.79,14.65c-.12-.48-.58-2.94,2.22-4.42.04-.02.09,0,.1.04.12.48.6,2.99-1.9,4.55-.03.02-.07-.01-.05-.04l1.44-3.38s-.01-.08-.07-.03c-.05.04-1.41,2.79-1.66,3.29-.01.03-.05.02-.06,0Z"/>
    <path class="st0" d="M60.35,18.46c-.15-1.35-.46-8.14,7.53-11.43.11-.04.23.02.24.14.14,1.34.5,8.28-6.73,11.85-.08.04-.17-.05-.12-.13l5.07-8.79s0-.22-.18-.11c-.16.1-4.79,7.21-5.64,8.5-.05.07-.15.05-.16-.04Z"/>
    <path class="st0" d="M62.61,8.88c-.09-.52-.39-3.13,2.66-4.48.04-.02.09,0,.1.05.09.51.41,3.18-2.33,4.63-.03.02-.07-.02-.05-.05l1.76-3.44s0-.08-.07-.04c-.06.04-1.69,2.83-1.99,3.33-.02.03-.06.02-.06-.01Z"/>
    <path class="st0" d="M55.45,9.93c-.5-.14-2.95-.98-2.86-4.28,0-.04.04-.08.09-.07.5.14,3.01.99,3.13,4.05,0,.03-.04.05-.07.03l-2.31-3.03s-.08-.03-.07.05c0,.07,1.8,2.71,2.12,3.19.02.03,0,.06-.04.05Z"/>
    <path class="st0" d="M58.39,14.02c-.78-1.09-4.34-6.78.7-13.65.07-.09.2-.09.27,0,.77,1.08,4.43,6.88.17,13.62-.05.08-.17.04-.17-.05l-.06-10.13s-.11-.19-.2,0c-.09.16-.47,8.63-.55,10.17,0,.09-.1.12-.15.05Z"/>
    <path class="st0" d="M57.08,18.34c-1.08-.35-6.42-2.41-7.01-9.64,0-.1.07-.17.17-.14,1.07.35,6.53,2.43,7.53,9.17.01.08-.08.11-.13.05l-5.57-6.86s-.17-.07-.13.1c.03.15,4.41,6.11,5.2,7.2.04.06,0,.13-.07.11Z"/>
    <path class="st0" d="M50.79,15.67c-.58-.11-3.42-.86-3.6-4.58,0-.05.04-.09.09-.08.57.11,3.48.86,3.89,4.31,0,.04-.05.06-.07.03l-2.88-3.23s-.09-.03-.07.06c.02.08,2.27,2.91,2.67,3.42.02.03,0,.07-.04.06Z"/>
    <path class="st0" d="M56.66,25.03c-1.11-.17-6.58-1.39-7.18-8.48,0-.1.08-.18.17-.16,1.1.18,6.7,1.39,7.73,7.93.01.07-.08.12-.13.07l-5.71-5.94s-.17-.04-.13.12c.04.15,4.52,5.38,5.33,6.33.05.05,0,.13-.07.12Z"/>
    <path class="st0" d="M47.79,21.74c-.76-.46-4.38-2.98-2.7-8.32.02-.07.11-.11.17-.07.75.46,4.46,3.01,3.25,8.08-.01.06-.1.07-.12.01l-2.38-6.03s-.11-.08-.13.05c-.02.12,1.69,5.27,1.99,6.2.02.05-.04.1-.09.07Z"/>
    <path class="st0" d="M56.14,33.74c-1.03-.37-6.01-2.54-5.27-9.41.01-.09.11-.15.19-.12,1.01.37,6.13,2.57,5.89,8.99,0,.07-.1.1-.14.04l-4.34-6.72s-.16-.07-.15.09c0,.15,3.31,5.96,3.91,7.02.03.06-.03.13-.09.1Z"/>
    <path class="st0" d="M54.93,43.4c-.83-.64-4.78-4.06-2.12-10.14.04-.08.14-.11.21-.06.82.63,4.87,4.12,2.8,9.93-.02.07-.12.07-.14,0l-2.04-7.4s-.12-.11-.16.04c-.04.14,1.32,6.41,1.56,7.56.01.06-.06.11-.11.07Z"/>
    <path class="st0" d="M49.52,37.02c-.36-.55-1.98-3.37,1.02-6.21.04-.04.11-.03.14.02.36.54,2.03,3.42-.56,6.24-.03.03-.09,0-.09-.03l.45-4.64s-.05-.09-.11-.01c-.05.07-.66,3.92-.78,4.62,0,.04-.06.05-.08.01Z"/>
    <path class="st0" d="M46.46,32.95c-.56-.85-3.07-5.24,1.3-9.95.06-.06.17-.06.21.02.55.84,3.14,5.32-.61,9.98-.04.05-.13.02-.13-.05l.5-7.42s-.07-.14-.16-.01c-.08.11-.85,6.29-.99,7.41,0,.06-.09.08-.12.03Z"/>
    <path class="st0" d="M43.52,28.66c-.86-.73-4.97-4.66-2.61-11.47.03-.09.14-.12.21-.06.85.73,5.07,4.72,3.29,11.25-.02.07-.12.07-.14,0l-2.4-8.39s-.13-.13-.16.05c-.03.15,1.63,7.26,1.92,8.55.02.07-.05.12-.11.08Z"/>
    <path class="st0" d="M40.27,29.24c-.91-.13-5.41-1.09-5.96-6.89,0-.08.06-.15.14-.13.9.14,5.5,1.09,6.4,6.44.01.06-.07.1-.11.06l-4.73-4.82s-.14-.04-.11.1c.03.12,3.75,4.37,4.42,5.15.04.04,0,.11-.06.1Z"/>
    <path class="st0" d="M43.55,18.57c-.3-.17-1.72-1.14-1.09-3.23,0-.03.04-.04.07-.03.29.17,1.75,1.15,1.3,3.13,0,.02-.04.03-.05,0l-.96-2.34s-.04-.03-.05.02c0,.05.68,2.04.8,2.41,0,.02-.02.04-.03.03Z"/>
    <path class="st0" d="M39.27,23.2c-.39-.15-2.31-1.03-1.97-3.68,0-.04.04-.06.08-.05.39.15,2.35,1.04,2.21,3.52,0,.03-.04.04-.05.02l-1.63-2.63s-.06-.03-.06.04c0,.06,1.24,2.33,1.46,2.74.01.02-.01.05-.04.04Z"/>
    <path class="st0" d="M35.35,28.26c-.51.18-3.13.92-5.02-1.96-.03-.04,0-.09.04-.11.51-.18,3.18-.95,5.13,1.6.02.03,0,.07-.04.06l-3.81-1.22s-.08.02-.03.08c.05.05,3.17,1.25,3.74,1.47.03.01.03.06,0,.07Z"/>
    <path class="st0" d="M41.09,32.57c-.94.6-5.78,3.28-10.88-1.57-.07-.07-.06-.18.02-.23.93-.59,5.87-3.36,10.92.81.06.05.02.15-.05.14l-8.12-.65s-.16.08-.02.18c.12.09,6.87,1.02,8.1,1.19.07,0,.09.1.03.14Z"/>
    <path class="st0" d="M37.47,37.73c-.8.28-4.86,1.45-7.82-3.03-.04-.06-.01-.15.06-.17.79-.28,4.94-1.49,7.99,2.47.03.05,0,.11-.06.1l-5.93-1.88s-.13.03-.04.13c.08.09,4.94,1.93,5.82,2.27.05.02.05.09,0,.11Z"/>
    <path class="st0" d="M45.11,36.22c-.68.41-4.17,2.22-7.7-1.32-.05-.05-.04-.13.02-.16.67-.4,4.24-2.27,7.74.79.04.03.01.1-.04.1l-5.76-.62s-.11.05-.01.13c.09.06,4.86.86,5.73,1,.05,0,.06.07.02.1Z"/>
    <path class="st0" d="M47.66,39.26c-.41.26-2.54,1.41-4.74-.73-.03-.03-.03-.08.01-.1.41-.25,2.58-1.44,4.76.4.02.02,0,.06-.02.06l-3.54-.32s-.07.03,0,.08c.05.04,3,.48,3.53.56.03,0,.04.04.01.06Z"/>
    <path class="st0" d="M43.25,44.43c-.77-.17-4.56-1.25-4.68-6.24,0-.07.06-.12.13-.11.76.17,4.64,1.26,5.09,5.88,0,.05-.06.08-.1.04l-3.76-4.4s-.12-.04-.1.08c.02.11,2.95,3.96,3.48,4.66.03.04,0,.09-.05.08Z"/>
    <path class="st0" d="M50.97,47.11c-.87-.1-5.19-.89-5.87-6.41,0-.07.05-.14.13-.13.86.11,5.28.89,6.28,5.97.01.06-.06.1-.1.06l-4.64-4.47s-.14-.03-.1.1c.03.11,3.7,4.07,4.36,4.79.04.04,0,.1-.05.1Z"/>
    <path class="st0" d="M38.58,43.65c-.89.3-5.44,1.51-8.61-3.56-.04-.07-.01-.16.07-.19.89-.29,5.53-1.56,8.81,2.94.04.05-.01.12-.07.1l-6.54-2.23s-.15.03-.05.14c.08.1,5.44,2.27,6.41,2.67.05.02.05.1,0,.12Z"/>
    <path class="st0" d="M33.58,44.81c-.31.24-1.95,1.31-3.88-.26-.03-.02-.03-.06,0-.08.31-.23,1.98-1.34,3.87,0,.02.02.01.05-.02.05h-2.88s-.05.02,0,.05c.05.03,2.45.18,2.89.2.02,0,.03.03.01.05Z"/>
    <path class="st0" d="M42.37,47.58c-.85.71-5.3,4-10.98-.14-.08-.06-.08-.17,0-.23.84-.7,5.38-4.09,10.93-.61.06.04.04.14-.03.15l-8.13.4s-.15.1,0,.18c.13.07,6.94.12,8.18.13.07,0,.1.09.05.13Z"/>
    <path class="st0" d="M49.31,52.39c-.9.68-5.62,3.77-11.16-.76-.07-.06-.07-.18,0-.24.9-.67,5.7-3.85,11.14,0,.06.04.03.15-.04.15l-8.29-.05s-.15.09,0,.18c.13.08,7.05.51,8.31.59.07,0,.1.09.04.14Z"/>
    <path class="st0" d="M36.84,52.43c-.64.28-3.94,1.46-6.63-2.08-.04-.05-.02-.12.04-.14.64-.27,4.01-1.5,6.73,1.61.03.04,0,.09-.05.08l-5-1.23s-.11.03-.03.11c.07.07,4.19,1.33,4.93,1.57.04.01.04.07,0,.09Z"/>
    <path class="st0" d="M55.19,67.48c-.73-.65-4.59-3.63-9.72-.15-.07.05-.08.15-.01.2.73.64,4.66,3.71,9.65.81.06-.03.04-.12-.03-.13l-7.18-.56s-.13-.09.01-.16c.12-.06,6.14.07,7.24.09.06,0,.09-.07.04-.11Z"/>
    <path class="st0" d="M54.95,63.32c-.56-.84-3.6-4.86-9.63-2.73-.08.03-.12.13-.07.2.55.83,3.65,4.95,9.39,3.37.07-.02.07-.11,0-.14l-7-2.46s-.1-.12.05-.15c.13-.03,6.1,1.7,7.18,2.01.06.02.11-.05.07-.1Z"/>
    <path class="st0" d="M53.01,57.28c-.73-.79-4.65-4.5-10.92-1.73-.08.04-.11.14-.05.21.73.78,4.72,4.59,10.75,2.4.07-.02.06-.12-.01-.14l-8.01-1.74s-.13-.11.03-.16c.14-.04,6.91,1.07,8.14,1.27.07.01.11-.06.07-.11Z"/>
    <path class="st0" d="M55.35,73.72c-.36.16-2.12,1.06-1.69,3.53,0,.03.04.05.07.04.36-.16,2.16-1.07,1.93-3.39,0-.03-.04-.03-.05-.01l-1.42,2.53s-.05.03-.06-.03c0-.05,1.06-2.24,1.25-2.63.01-.02-.01-.05-.03-.04Z"/>
    <path class="st0" d="M54.36,70.73c-.99-.05-5.96.04-7.75,6.09-.02.08.04.17.12.17.98.04,6.07-.02,8.12-5.52.02-.06-.05-.12-.1-.08l-6.01,4.15s-.16,0-.09-.13c.06-.12,4.88-3.87,5.76-4.55.05-.04.02-.12-.04-.12Z"/>
    <path class="st0" d="M47.58,71.01c-.9-.06-5.38-.05-7.08,5.38-.02.07.03.15.11.16.89.05,5.48.07,7.41-4.86.02-.06-.04-.11-.09-.08l-5.49,3.65s-.14,0-.08-.12c.05-.11,4.47-3.42,5.27-4.03.04-.03.02-.1-.03-.11Z"/>
    <path class="st0" d="M43.96,68.74c-.76-.31-4.63-1.61-7.67,2.58-.04.06-.02.14.05.17.75.3,4.7,1.65,7.8-2.04.04-.04,0-.11-.06-.09l-5.8,1.56s-.12-.04-.04-.13c.08-.08,4.85-1.65,5.71-1.94.05-.02.05-.08,0-.1Z"/>
    <path class="st0" d="M46.15,64.66c-.09-.49-.72-2.9-3.88-3.06-.04,0-.08.04-.07.08.1.49.72,2.96,3.65,3.31.03,0,.05-.04.03-.06l-2.73-2.45s-.02-.08.05-.06c.07.01,2.46,1.93,2.9,2.27.02.02.06,0,.05-.03Z"/>
    <path class="st0" d="M44.14,66.07c-.38-.63-2.49-3.63-6.93-2.22-.06.02-.09.09-.06.14.38.62,2.52,3.7,6.74,2.68.05-.01.05-.08,0-.1l-5.03-1.96s-.07-.09.04-.11c.1-.02,4.39,1.39,5.17,1.64.04.01.08-.03.06-.07Z"/>
    <path class="st0" d="M38.33,61.05c-.54-.67-3.43-3.85-8.38-1.55-.07.03-.09.12-.04.18.54.66,3.48,3.92,8.23,2.12.05-.02.05-.1,0-.12l-6.13-1.53s-.1-.1.03-.13c.11-.03,5.3.96,6.25,1.13.05,0,.09-.05.05-.09Z"/>
    <path class="st0" d="M39.07,55.16c-.74-.52-4.57-2.89-8.89.85-.06.05-.06.14,0,.19.73.51,4.64,2.96,8.9-.23.05-.04.02-.12-.04-.12l-6.62.21s-.12-.07,0-.14c.1-.06,5.62-.56,6.62-.65.06,0,.07-.08.03-.11Z"/>
    <path class="st0" d="M35.27,64.03c-.38-.4-2.37-2.26-5.39-.56-.04.02-.05.08-.02.11.37.39,2.4,2.31,5.32.93.03-.02.03-.07,0-.07l-3.96-.66s-.07-.06.01-.09c.07-.03,3.41.34,4.02.4.03,0,.05-.04.03-.06Z"/>
    <path class="st0" d="M39.92,72.81c-.59-.03-3.56,0-4.66,3.6-.01.05.02.1.07.1.59.03,3.63.02,4.88-3.26.01-.04-.03-.07-.06-.05l-3.62,2.45s-.09,0-.05-.08c.03-.07,2.94-2.29,3.46-2.69.03-.02.01-.07-.02-.07Z"/>
    <path class="st0" d="M35.17,72.73c-.62-.04-3.7-.06-4.88,3.67-.02.05.02.1.07.11.61.04,3.76.07,5.11-3.31.02-.04-.03-.08-.06-.05l-3.79,2.49s-.1,0-.06-.08c.04-.07,3.08-2.33,3.63-2.74.03-.02.02-.07-.02-.07Z"/>
    <path class="st0" d="M34.56,70.43c-.46-.21-2.83-1.14-4.85,1.38-.03.03-.02.09.02.1.46.21,2.88,1.17,4.92-1.03.02-.03,0-.07-.03-.06l-3.65.79s-.08-.03-.02-.08c.05-.05,3.06-.88,3.61-1.04.03,0,.03-.05,0-.06Z"/>
    <path class="st0" d="M38.36,67.2c-.68-.52-4.22-2.92-8.48.45-.06.05-.06.14,0,.18.67.52,4.28,2.99,8.46.13.05-.03.03-.11-.03-.11l-6.29-.06s-.12-.07,0-.14c.1-.06,5.36-.31,6.31-.36.05,0,.07-.07.03-.1Z"/>
    <path class="st0" d="M44.16,59.04c-.43-.46-2.73-2.64-6.23-.68-.05.03-.06.09-.02.13.43.46,2.76,2.69,6.15,1.11.04-.02.03-.08,0-.09l-4.58-.8s-.08-.07.02-.1c.08-.03,3.94.42,4.65.5.04,0,.06-.04.03-.07Z"/>
  </g>
  <g>
    <path class="st0" d="M31.8,88.09l-1.32-5.19h.71l.62,2.63c.15.65.29,1.29.39,1.79h.02c.08-.52.25-1.13.42-1.8l.69-2.62h.7l.63,2.63c.15.62.29,1.23.36,1.78h.02c.11-.57.25-1.15.42-1.79l.69-2.62h.69l-1.47,5.19h-.7l-.66-2.7c-.16-.66-.27-1.17-.34-1.69h-.02c-.09.52-.21,1.02-.4,1.69l-.74,2.7h-.7Z"/>
    <path class="st0" d="M37.57,86.35c.02.92.6,1.29,1.28,1.29.49,0,.78-.08,1.03-.19l.12.49c-.24.11-.65.23-1.24.23-1.15,0-1.83-.76-1.83-1.88s.66-2.01,1.75-2.01c1.22,0,1.54,1.07,1.54,1.76,0,.14-.02.25-.02.32h-2.62ZM39.56,85.87c0-.43-.18-1.1-.94-1.1-.69,0-.99.63-1.04,1.1h1.98Z"/>
    <path class="st0" d="M41.06,82.62h.68v5.47h-.68v-5.47Z"/>
    <path class="st0" d="M42.88,82.62h.68v5.47h-.68v-5.47Z"/>
    <path class="st0" d="M44.66,88.09c.02-.25.03-.63.03-.96v-4.51h.67v2.34h.02c.24-.42.67-.69,1.27-.69.93,0,1.58.77,1.57,1.9,0,1.33-.84,2-1.67,2-.54,0-.97-.21-1.25-.7h-.02l-.03.62h-.59ZM45.37,86.6c0,.08.02.17.03.25.13.47.52.79,1.02.79.71,0,1.13-.58,1.13-1.43,0-.75-.39-1.39-1.11-1.39-.46,0-.89.32-1.03.83-.02.08-.04.17-.04.28v.67Z"/>
    <path class="st0" d="M49.46,86.35c.02.92.6,1.29,1.28,1.29.49,0,.78-.08,1.03-.19l.12.49c-.24.11-.65.23-1.24.23-1.15,0-1.83-.76-1.83-1.88s.66-2.01,1.75-2.01c1.22,0,1.54,1.07,1.54,1.76,0,.14-.02.25-.02.32h-2.62ZM51.45,85.87c0-.43-.18-1.1-.94-1.1-.69,0-.99.63-1.04,1.1h1.98Z"/>
    <path class="st0" d="M53.7,83.32c0,.23-.16.42-.43.42-.24,0-.41-.19-.41-.42s.18-.42.42-.42.42.18.42.42ZM52.94,88.09v-3.73h.68v3.73h-.68Z"/>
    <path class="st0" d="M54.75,85.37c0-.39,0-.7-.03-1.01h.6l.04.62h.02c.19-.35.62-.7,1.23-.7.52,0,1.32.31,1.32,1.59v2.23h-.68v-2.15c0-.6-.22-1.1-.86-1.1-.45,0-.79.32-.91.69-.03.08-.05.2-.05.32v2.24h-.68v-2.72Z"/>
    <path class="st0" d="M62.24,84.36c-.02.27-.03.57-.03,1.02v2.16c0,.85-.17,1.38-.53,1.7-.36.34-.89.45-1.36.45s-.94-.11-1.24-.31l.17-.52c.25.15.63.29,1.09.29.69,0,1.2-.36,1.2-1.3v-.42h-.02c-.21.35-.61.62-1.19.62-.93,0-1.59-.79-1.59-1.82,0-1.26.82-1.98,1.68-1.98.65,0,1,.34,1.16.65h.02l.03-.56h.59ZM61.54,85.83c0-.12,0-.22-.04-.31-.12-.39-.45-.72-.95-.72-.65,0-1.11.55-1.11,1.41,0,.73.37,1.34,1.1,1.34.42,0,.79-.26.94-.69.04-.12.05-.25.05-.36v-.67Z"/>
    <path class="st0" d="M64.99,82.97c.41-.06.89-.11,1.43-.11.96,0,1.65.22,2.1.65.46.42.73,1.02.73,1.86s-.26,1.54-.75,2.02c-.49.49-1.29.75-2.3.75-.48,0-.88-.02-1.22-.06v-5.11ZM65.66,87.56c.17.03.42.04.68.04,1.43,0,2.21-.8,2.21-2.2,0-1.23-.69-2-2.1-2-.35,0-.61.03-.79.07v4.1Z"/>
    <path class="st0" d="M70.51,86.35c.02.92.6,1.29,1.28,1.29.49,0,.78-.08,1.03-.19l.12.49c-.24.11-.65.23-1.24.23-1.15,0-1.83-.76-1.83-1.88s.66-2.01,1.75-2.01c1.22,0,1.54,1.07,1.54,1.76,0,.14-.02.25-.02.32h-2.62ZM72.5,85.87c0-.43-.18-1.1-.94-1.1-.69,0-.99.63-1.04,1.1h1.98Z"/>
    <path class="st0" d="M73.91,87.4c.2.13.56.27.89.27.49,0,.72-.25.72-.55,0-.32-.19-.5-.69-.69-.67-.24-.99-.61-.99-1.06,0-.6.49-1.09,1.29-1.09.38,0,.71.11.92.23l-.17.49c-.15-.09-.42-.22-.76-.22-.4,0-.62.23-.62.51,0,.31.22.45.71.63.65.25.98.57.98,1.12,0,.65-.51,1.12-1.4,1.12-.41,0-.79-.1-1.05-.25l.17-.52Z"/>
    <path class="st0" d="M77.81,83.32c0,.23-.16.42-.43.42-.24,0-.41-.19-.41-.42s.18-.42.42-.42.42.18.42.42ZM77.05,88.09v-3.73h.68v3.73h-.68Z"/>
    <path class="st0" d="M82.07,84.36c-.02.27-.03.57-.03,1.02v2.16c0,.85-.17,1.38-.53,1.7-.36.34-.89.45-1.36.45s-.94-.11-1.24-.31l.17-.52c.25.15.63.29,1.09.29.69,0,1.2-.36,1.2-1.3v-.42h-.02c-.21.35-.61.62-1.19.62-.93,0-1.59-.79-1.59-1.82,0-1.26.82-1.98,1.68-1.98.65,0,1,.34,1.16.65h.02l.03-.56h.59ZM81.37,85.83c0-.12,0-.22-.04-.31-.12-.39-.45-.72-.95-.72-.65,0-1.11.55-1.11,1.41,0,.73.37,1.34,1.1,1.34.42,0,.79-.26.94-.69.04-.12.05-.25.05-.36v-.67Z"/>
    <path class="st0" d="M83.12,85.37c0-.39,0-.7-.03-1.01h.6l.04.62h.02c.19-.35.62-.7,1.23-.7.52,0,1.32.31,1.32,1.59v2.23h-.68v-2.15c0-.6-.22-1.1-.86-1.1-.45,0-.79.32-.91.69-.03.08-.05.2-.05.32v2.24h-.68v-2.72Z"/>
    <path class="st0" d="M87.3,87.4c.2.13.56.27.89.27.49,0,.72-.25.72-.55,0-.32-.19-.5-.69-.69-.67-.24-.99-.61-.99-1.06,0-.6.49-1.09,1.29-1.09.38,0,.71.11.92.23l-.17.49c-.15-.09-.42-.22-.76-.22-.4,0-.62.23-.62.51,0,.31.22.45.71.63.65.25.98.57.98,1.12,0,.65-.51,1.12-1.4,1.12-.41,0-.79-.1-1.05-.25l.17-.52Z"/>
  </g>
</svg>