<?xml version="1.0" encoding="UTF-8"?>
<svg id="Layer_1" xmlns="http://www.w3.org/2000/svg" width="62.62mm" height="31.75mm" version="1.1" viewBox="0 0 177.51 90">
  <!-- Generator: Adobe Illustrator 29.6.1, SVG Export Plug-In . SVG Version: 2.1.1 Build 9)  -->
  <defs>
    <style>
      .st0 {
        fill: #6b9f50;
      }

      .st1 {
        fill: #7b8737;
      }

      .st2 {
        fill: #41813d;
      }

      .st3 {
        fill: #6dbd47;
      }

      .st4 {
        fill: #6d9944;
      }

      .st5 {
        fill: #5c8e3f;
      }

      .st6 {
        fill: #55b856;
      }

      .st7 {
        fill: #275026;
      }

      .st8 {
        fill: #306733;
      }

      .st9 {
        fill: #fff;
      }

      .st10 {
        fill: #879d3b;
      }

      .st11 {
        fill: #549041;
      }

      .st12 {
        fill: #b7ba34;
      }

      .st13 {
        fill: #c6c84b;
      }

      .st14 {
        fill: #4eb161;
      }

      .st15 {
        fill: #6bbd49;
      }

      .st16 {
        fill: #325f2e;
      }

      .st17 {
        fill: #97a439;
      }
    </style>
  </defs>
  <g>
    <rect class="st9" x="0" y="0" width="90" height="90"/>
    <g>
      <g>
        <polygon class="st3" points="17.76 58.53 17.76 70.76 24.57 69.81 17.76 58.53"/>
        <path class="st11" d="M17.76,70.76v5.29c0,.66.53,1.19,1.19,1.19h2.26l3.36-7.43-6.81.95Z"/>
        <path class="st5" d="M23.99,26.55l-5.85,5.42c-.24.22-.38.54-.38.87v1.92l7.69.4-1.46-8.61Z"/>
        <polygon class="st2" points="17.76 34.76 17.76 47.37 25.45 35.16 17.76 34.76"/>
        <polygon class="st3" points="21.21 77.24 25.95 77.24 24.57 69.81 21.21 77.24"/>
        <polygon class="st4" points="27.93 52.31 17.76 52.7 17.76 58.53 24.57 69.81 27.93 52.31"/>
        <polygon class="st11" points="25.45 35.16 17.76 47.37 17.76 52.7 27.93 52.31 25.45 35.16"/>
        <polygon class="st2" points="25.45 35.16 27.93 52.31 35.88 40.99 25.45 35.16"/>
        <polygon class="st7" points="38.53 13.77 37.62 13.92 23.99 26.55 25.45 35.16 38.53 13.77"/>
        <polygon class="st2" points="38.09 13.49 37.62 13.92 38.53 13.77 38.09 13.49"/>
        <polygon class="st2" points="38.4 13.2 38.09 13.49 38.53 13.77 38.4 13.2"/>
        <polygon class="st3" points="24.57 69.81 25.95 77.24 38.21 77.24 39.95 75.99 24.57 69.81"/>
        <polygon class="st6" points="27.93 52.31 46.14 60.61 35.88 40.99 27.93 52.31"/>
        <polygon class="st11" points="24.57 69.81 46.14 60.61 27.93 52.31 24.57 69.81"/>
        <polygon class="st10" points="39.95 75.99 46.14 60.61 24.57 69.81 39.95 75.99"/>
        <polygon class="st4" points="47.9 28.8 25.45 35.16 35.88 40.99 47.9 28.8"/>
        <polygon class="st16" points="38.53 13.77 25.45 35.16 47.9 28.8 38.53 13.77"/>
        <polygon class="st17" points="38.21 77.24 40.62 77.24 39.95 75.99 38.21 77.24"/>
        <path class="st2" d="M45.63,8.56l-.33-.29c-.46-.41-1.15-.4-1.6.01l-5.31,4.92.14.57,7.09-5.21Z"/>
        <polygon class="st10" points="35.88 40.99 46.14 60.61 53.21 43.11 35.88 40.99"/>
        <polygon class="st15" points="53.21 43.11 47.9 28.8 35.88 40.99 53.21 43.11"/>
        <polygon class="st10" points="39.95 75.99 45.35 77.24 52.94 77.24 46.14 60.61 39.95 75.99"/>
        <polygon class="st1" points="40.62 77.24 45.35 77.24 39.95 75.99 40.62 77.24"/>
        <polygon class="st7" points="47.9 28.8 58.48 20.05 53.73 15.81 38.53 13.77 47.9 28.8"/>
        <polygon class="st11" points="53.73 15.81 45.63 8.56 38.53 13.77 53.73 15.81"/>
        <polygon class="st0" points="46.14 60.61 65.05 63.44 53.21 43.11 46.14 60.61"/>
        <polygon class="st17" points="46.14 60.61 52.94 77.24 55.13 77.24 65.05 63.44 46.14 60.61"/>
        <polygon class="st17" points="53.21 43.11 65.05 63.44 65.76 39.93 53.21 43.11"/>
        <polygon class="st4" points="66.47 29.86 65.22 26.08 58.48 20.05 47.9 28.8 66.47 29.86"/>
        <polygon class="st16" points="66.47 29.86 47.9 28.8 53.21 43.11 66.47 29.86"/>
        <polygon class="st14" points="65.76 39.93 66.47 29.86 53.21 43.11 65.76 39.93"/>
        <polygon class="st12" points="65.05 63.44 55.13 77.24 69.56 77.24 65.05 63.44"/>
        <polygon class="st16" points="65.05 63.44 72.25 50.35 72.25 44.86 65.76 39.93 65.05 63.44"/>
        <path class="st5" d="M65.76,39.93l6.49-5.52v-1.52c0-.34-.14-.66-.4-.88l-2.66-2.38-2.72.23-.71,10.08Z"/>
        <polygon class="st7" points="72.25 44.86 72.25 34.41 65.76 39.93 72.25 44.86"/>
        <polygon class="st3" points="69.19 29.62 65.22 26.08 66.47 29.86 69.19 29.62"/>
        <polygon class="st8" points="72.25 63.73 72.25 50.35 65.05 63.44 72.25 63.73"/>
        <path class="st13" d="M69.56,77.24h1.5c.66,0,1.19-.53,1.19-1.19v-12.32l-7.19-.29,4.51,13.8Z"/>
      </g>
      <g>
        <path class="st9" d="M41.96,77.22c.11-.82,2.86-23.12-13.28-28.96-.03,0-.02-.05,0-.04,1.57.35,8.63,2.15,12.15,6.91.02.02.05,0,.04-.02-.39-1.21-3.61-10.86-10.38-18.25-.02-.02,0-.05.03-.03,1.95,1.87,9.04,8.97,12.03,15.98,0,.02.04.02.04,0,.08-1.08.84-12.03,1.1-22.05.05-1.97-.17-3.88-.36-5.72,0-.03.04-.04.05,0,.22.76.87,3.18,1.22,5.86.42,3.29.86,6.96.9,8.45,0,.07.09.09.12.03.58-.98,3.17-5.2,6.51-7.91.02-.02.05.01.04.03-.81.93-3.94,4.75-5.79,10.8-1.4,4.58-.76,9.98-.88,16.93,0,.02.03.03.04.01.46-.91,4.63-8.71,14.44-16.73.02-.02.05,0,.04.03-1.28,1.52-9.63,11.58-10.32,16.72,0,.02.02.03.04.02.54-.51,5.66-5.21,11.26-6.21.03,0,.04.04.01.05-1.96.79-15.84,6.99-13.99,24.1,0,.01,0,.03-.02.03h-5.02s-.03,0-.02-.02Z"/>
        <path class="st9" d="M48.92,67.15c.67-.55,4.16-3.07,8.57.16.06.04.06.13,0,.18-.66.54-4.22,3.13-8.53.42-.05-.03-.03-.11.03-.11l6.35-.27s.11-.08,0-.14c-.1-.05-5.42-.12-6.38-.14-.05,0-.08-.07-.03-.1Z"/>
        <path class="st9" d="M49.65,63.68c.47-.71,3.04-4.1,8.13-2.3.07.02.1.11.06.17-.47.7-3.08,4.18-7.92,2.85-.06-.02-.06-.1,0-.11l5.91-2.08s.09-.1-.04-.13c-.11-.02-5.15,1.44-6.06,1.7-.05.01-.09-.04-.06-.09Z"/>
        <path class="st9" d="M55.05,58.04c.75-.4,4.64-2.17,8.25,1.87.05.05.03.14-.03.18-.75.4-4.71,2.22-8.33-1.29-.04-.04,0-.11.05-.1l6.19,1s.13-.05.02-.14c-.09-.07-5.21-1.2-6.15-1.41-.05-.01-.06-.08-.01-.11Z"/>
        <path class="st9" d="M59.24,55.12c.75-.41,4.59-2.24,8.26,1.73.05.05.04.14-.03.18-.74.41-4.66,2.29-8.33-1.15-.04-.04,0-.11.05-.1l6.19.9s.12-.05.02-.14c-.09-.07-5.22-1.11-6.15-1.31-.05-.01-.06-.08-.01-.11Z"/>
        <path class="st9" d="M62.51,52.31c.53-.6,3.37-3.45,7.89-1.09.06.03.08.11.03.17-.53.6-3.41,3.52-7.77,1.63-.05-.02-.04-.1,0-.11l5.79-1.17s.09-.09-.02-.13c-.1-.04-4.99.67-5.88.8-.05,0-.08-.05-.05-.09Z"/>
        <path class="st9" d="M62.74,49.07c.32-.74,2.16-4.31,7.18-3.44.07.01.11.09.08.15-.32.73-2.18,4.39-6.9,3.92-.05,0-.07-.08-.02-.11l5.16-2.88s.06-.11-.06-.11c-.11,0-4.55,2.16-5.36,2.55-.05.02-.09-.02-.07-.07Z"/>
        <path class="st9" d="M57.14,46.73c.48-.65,3.07-3.72,7.77-1.75.06.03.09.11.05.16-.48.64-3.11,3.79-7.6,2.27-.05-.02-.05-.09,0-.11l5.67-1.65s.09-.09-.04-.12c-.11-.03-4.92,1.09-5.79,1.28-.05.01-.08-.04-.05-.09Z"/>
        <path class="st9" d="M53.42,54.5c-.06-.7-.13-4.22,4.11-5.65.06-.02.12.02.12.08.06.7.15,4.3-3.69,5.9-.04.02-.09-.03-.06-.07l2.78-4.37s0-.11-.1-.06c-.08.04-2.61,3.56-3.07,4.2-.03.04-.08.02-.08-.02Z"/>
        <path class="st9" d="M58.84,52.58c-.06-.44-.23-2.66,2.4-3.71.04-.01.08,0,.08.05.06.44.24,2.71-2.13,3.85-.03.01-.06-.02-.04-.04l1.61-2.85s0-.07-.06-.04c-.05.03-1.53,2.34-1.8,2.76-.02.02-.05.02-.05-.01Z"/>
        <path class="st9" d="M48.18,72.56c.31.12,1.83.8,1.59,2.9,0,.03-.03.05-.06.04-.31-.12-1.87-.8-1.78-2.77,0-.02.03-.03.04-.01l1.31,2.07s.05.02.05-.03c0-.05-1-1.84-1.18-2.16-.01-.02,0-.04.03-.03Z"/>
        <path class="st9" d="M49.07,69.61c.88-.04,5.26.06,6.82,5.41.02.07-.03.15-.11.15-.87.03-5.36-.04-7.15-4.91-.02-.06.04-.11.09-.07l5.29,3.69s.14,0,.08-.12c-.05-.11-4.3-3.44-5.07-4.05-.04-.03-.02-.1.04-.1Z"/>
        <path class="st9" d="M55.15,70.23c.76-.05,4.54-.04,5.98,4.55.02.06-.02.13-.09.13-.75.04-4.62.06-6.26-4.11-.02-.05.04-.09.08-.07l4.63,3.09s.12,0,.07-.1c-.05-.09-3.77-2.89-4.44-3.4-.04-.03-.02-.09.03-.09Z"/>
        <path class="st9" d="M58.5,68.42c.64-.26,3.9-1.36,6.47,2.18.03.05.02.12-.04.14-.63.26-3.97,1.39-6.59-1.72-.03-.04,0-.09.05-.08l4.89,1.31s.1-.03.03-.11c-.07-.07-4.09-1.39-4.82-1.64-.04-.01-.04-.07,0-.09Z"/>
        <path class="st9" d="M56.89,64.97c.09-.45.66-2.69,3.59-2.83.04,0,.07.03.06.07-.09.45-.67,2.73-3.37,3.06-.03,0-.05-.04-.03-.06l2.52-2.26s.02-.07-.05-.06c-.06.01-2.28,1.78-2.68,2.1-.02.02-.05,0-.05-.03Z"/>
        <path class="st9" d="M58.89,66.29c.3-.49,1.93-2.81,5.37-1.72.05.01.07.07.04.11-.3.48-1.95,2.87-5.22,2.08-.04,0-.04-.06,0-.08l3.89-1.52s.05-.07-.03-.09c-.08-.01-3.4,1.07-4,1.27-.03.01-.06-.03-.04-.06Z"/>
        <path class="st9" d="M63.04,62.1c.5-.53,3.15-3,7.16-.73.05.03.07.11.02.15-.5.52-3.2,3.07-7.06,1.22-.04-.02-.04-.09.01-.1l5.26-.87s.09-.08-.02-.12c-.09-.03-4.53.45-5.33.53-.05,0-.07-.05-.04-.08Z"/>
        <path class="st9" d="M65.68,59.41c.26-.38,1.65-2.22,4.41-1.22.04.01.05.06.03.09-.26.38-1.68,2.26-4.3,1.51-.03,0-.03-.05,0-.06l3.2-1.11s.05-.06-.02-.07c-.06-.01-2.79.76-3.29.9-.03,0-.05-.02-.03-.05Z"/>
        <path class="st9" d="M66.6,54.43c.38-.14,2.33-.7,3.76,1.45.02.03,0,.07-.03.08-.38.13-2.37.72-3.83-1.18-.02-.02,0-.05.03-.05l2.85.9s.06-.02.02-.06c-.04-.04-2.37-.92-2.8-1.09-.02,0-.02-.04,0-.05Z"/>
        <path class="st9" d="M65.53,64.67c.32-.34,2-1.91,4.55-.47.03.02.04.07.02.1-.31.33-2.03,1.95-4.49.78-.03-.01-.02-.06,0-.06l3.34-.56s.06-.05-.01-.07c-.06-.02-2.88.29-3.39.34-.03,0-.05-.03-.03-.05Z"/>
        <path class="st9" d="M61.78,72.04c.5-.03,3.01,0,3.93,3.04.01.04-.02.08-.06.09-.5.02-3.06.01-4.12-2.75-.01-.03.02-.06.05-.04l3.05,2.07s.08,0,.05-.07c-.03-.06-2.48-1.93-2.92-2.27-.02-.02-.01-.06.02-.06Z"/>
        <path class="st9" d="M65.77,71.91c.52-.04,3.12-.05,4.12,3.1.01.04-.02.09-.06.09-.51.03-3.17.06-4.31-2.79-.01-.03.02-.06.05-.05l3.19,2.1s.08,0,.05-.07c-.03-.06-2.6-1.97-3.06-2.32-.03-.02-.01-.06.02-.06Z"/>
        <path class="st9" d="M66.73,70.18c.39-.18,2.39-.96,4.09,1.16.02.03.01.07-.02.09-.39.18-2.43.99-4.15-.87-.02-.02,0-.06.03-.05l3.08.67s.06-.02.02-.07c-.04-.04-2.59-.74-3.05-.88-.03,0-.03-.04,0-.05Z"/>
        <path class="st9" d="M63.65,67.2c.57-.44,3.56-2.47,7.15.38.05.04.05.11,0,.15-.57.44-3.62,2.52-7.14.11-.04-.03-.02-.09.03-.09l5.31-.05s.1-.06,0-.12c-.09-.05-4.52-.26-5.33-.3-.05,0-.06-.06-.03-.09Z"/>
        <path class="st9" d="M66.5,44.39c.19-.28,1.24-1.59,3.23-.82.03.01.04.04.02.07-.19.27-1.25,1.62-3.15,1.04-.02,0-.02-.04,0-.05l2.35-.76s.03-.04-.02-.05c-.04,0-2.04.51-2.41.6-.02,0-.04-.02-.02-.03Z"/>
        <path class="st9" d="M60.85,42.36c.56-.71,3.55-4.09,8.79-1.75.07.03.1.12.05.18-.55.7-3.6,4.18-8.61,2.34-.06-.02-.06-.11,0-.12l6.42-1.7s.1-.1-.04-.14c-.12-.03-5.56,1.08-6.55,1.28-.06.01-.09-.05-.06-.1Z"/>
        <path class="st9" d="M67.27,38.87c.13-.31.86-1.82,2.97-1.51.03,0,.05.03.04.06-.13.31-.87,1.86-2.85,1.71-.02,0-.03-.03-.01-.04l2.13-1.26s.02-.05-.03-.05c-.05,0-1.88.95-2.21,1.12-.02,0-.04,0-.03-.03Z"/>
        <path class="st9" d="M62.11,39.38c.1-.98.9-5.82,7.07-6.68.08-.01.16.06.15.14-.1.97-.9,5.92-6.57,7.13-.06.01-.11-.07-.07-.11l4.92-5.27s.03-.15-.11-.11c-.13.04-4.48,4.21-5.28,4.96-.04.04-.12,0-.11-.06Z"/>
        <path class="st9" d="M46.29,54.69c-.24-.58-1.22-3.55,1.99-5.87.04-.03.11-.01.13.04.23.58,1.26,3.6-1.58,5.97-.03.03-.08,0-.07-.04l1.2-4.44s-.03-.1-.1-.03c-.06.06-1.28,3.71-1.5,4.37-.01.04-.06.04-.08,0Z"/>
        <path class="st9" d="M46.11,48.15c-.13-.57-.57-3.48,2.78-5.12.05-.02.1,0,.11.05.12.57.59,3.53-2.41,5.28-.03.02-.08-.02-.06-.05l1.82-3.91s-.01-.09-.09-.04c-.07.05-1.77,3.23-2.08,3.81-.02.03-.07.02-.07-.01Z"/>
        <path class="st9" d="M50.19,49.88c-.38-.68-2.04-4.2,1.59-7.55.05-.05.13-.03.16.03.37.68,2.09,4.26-1.06,7.61-.04.04-.1,0-.1-.04l.82-5.66s-.05-.11-.12-.02c-.07.08-1.02,4.77-1.2,5.62,0,.05-.07.06-.1.01Z"/>
        <path class="st9" d="M54.22,45.88c-.33-.75-1.75-4.6,2.38-7.78.06-.04.14-.02.17.04.33.75,1.79,4.68-1.83,7.9-.04.04-.11,0-.1-.06l1.4-5.87s-.04-.12-.13-.03c-.08.08-1.52,4.92-1.79,5.79-.01.05-.08.05-.1,0Z"/>
        <path class="st9" d="M58.5,41.2c-.37-.81-1.97-4.96,2.46-8.48.06-.05.15-.03.18.04.36.8,2.02,5.04-1.86,8.59-.04.04-.12,0-.11-.06l1.43-6.39s-.05-.13-.14-.03c-.08.09-1.57,5.35-1.85,6.31-.02.05-.09.06-.11,0Z"/>
        <path class="st9" d="M63.05,33.78c-.12-.51-.54-3.11,2.46-4.61.04-.02.09,0,.1.05.11.51.55,3.17-2.12,4.75-.03.02-.07-.01-.05-.05l1.6-3.52s-.01-.08-.08-.04c-.06.04-1.56,2.91-1.84,3.43-.02.03-.06.02-.07,0Z"/>
        <path class="st9" d="M47.85,41.23c.36-.69,2.36-4.02,7.15-2.87.06.02.1.09.07.15-.36.68-2.38,4.1-6.91,3.34-.05,0-.06-.08-.02-.1l5.16-2.45s.07-.1-.05-.11c-.11,0-4.53,1.8-5.34,2.12-.05.02-.09-.03-.06-.07Z"/>
        <path class="st9" d="M49.38,37.12c.31-.33,1.96-1.88,4.47-.47.03.02.04.07.01.09-.31.33-1.99,1.92-4.41.77-.03-.01-.02-.06,0-.06l3.28-.55s.05-.05-.01-.07c-.06-.02-2.82.28-3.33.34-.03,0-.04-.03-.02-.05Z"/>
        <path class="st9" d="M51.15,34.03c.54-.46,3.38-2.61,7.06.02.05.04.05.11,0,.15-.54.46-3.43,2.67-7.01.47-.04-.02-.03-.09.02-.09l5.22-.32s.09-.06,0-.11c-.09-.04-4.46-.03-5.26-.03-.04,0-.06-.05-.03-.08Z"/>
        <path class="st9" d="M53.63,30.92c.55-.88,3.57-5.09,9.83-3.03.08.03.12.13.08.21-.55.87-3.62,5.19-9.56,3.69-.07-.02-.08-.12-.01-.14l7.13-2.7s.1-.13-.06-.16c-.14-.02-6.22,1.89-7.33,2.23-.06.02-.11-.05-.08-.1Z"/>
        <path class="st9" d="M52.51,29.29c-.24-.83-1.14-5.06,3.64-7.77.06-.04.15,0,.17.07.23.83,1.18,5.15-3.08,7.97-.05.03-.11-.02-.09-.07l2.33-5.92s-.02-.14-.13-.05c-.09.07-2.32,4.9-2.73,5.78-.02.05-.09.04-.11,0Z"/>
        <path class="st9" d="M56.86,26.78c.07-.42.56-2.48,3.24-2.68.04,0,.07.03.06.07-.07.41-.56,2.53-3.04,2.89-.03,0-.05-.03-.03-.05l2.27-2.13s.02-.06-.05-.05c-.06.01-2.06,1.69-2.42,1.99-.02.02-.05,0-.05-.03Z"/>
        <path class="st9" d="M46.24,35.25c-.38-.71-2.03-4.39,1.81-7.79.05-.05.14-.03.17.03.37.71,2.08,4.46-1.26,7.87-.04.04-.11,0-.1-.05l.97-5.85s-.05-.12-.13-.02c-.07.08-1.16,4.92-1.36,5.8-.01.05-.08.06-.1.01Z"/>
        <path class="st9" d="M50.26,31.09c-.41-.51-2.32-3.15.17-6.47.03-.04.1-.05.14,0,.41.5,2.37,3.2.28,6.44-.02.04-.08.02-.09-.02l-.18-4.8s-.06-.09-.11,0c-.04.08-.12,4.09-.14,4.82,0,.04-.05.06-.08.03Z"/>
        <path class="st9" d="M52.26,22.82c-.1-.41-.49-2.48,1.87-3.74.03-.02.07,0,.08.04.1.41.51,2.52-1.6,3.84-.02.01-.06-.01-.04-.04l1.21-2.85s0-.07-.06-.03c-.05.03-1.19,2.36-1.4,2.78-.01.02-.05.02-.05,0Z"/>
        <path class="st9" d="M45.13,26.04c-.12-1.14-.39-6.88,6.36-9.65.09-.04.19.02.2.12.12,1.13.42,7-5.68,10.01-.07.03-.14-.04-.1-.11l4.27-7.42s0-.18-.16-.09c-.13.08-4.04,6.09-4.76,7.17-.04.06-.13.04-.14-.03Z"/>
        <path class="st9" d="M47.04,17.95c-.08-.44-.33-2.64,2.24-3.78.03-.02.08,0,.08.04.08.43.35,2.68-1.97,3.91-.03.01-.06-.01-.04-.04l1.48-2.9s0-.07-.06-.03c-.05.03-1.43,2.39-1.68,2.81-.01.02-.05.02-.05-.01Z"/>
        <path class="st9" d="M41,18.84c-.42-.12-2.49-.83-2.41-3.61,0-.04.04-.07.07-.06.42.12,2.54.84,2.65,3.42,0,.03-.04.04-.06.02l-1.95-2.56s-.06-.03-.06.04c0,.06,1.52,2.29,1.79,2.7.02.02,0,.05-.03.04Z"/>
        <path class="st9" d="M43.47,22.29c-.66-.92-3.66-5.73.59-11.53.06-.08.17-.08.23,0,.65.91,3.74,5.81.14,11.5-.04.06-.14.04-.14-.04l-.05-8.56s-.09-.16-.17,0c-.07.14-.4,7.29-.47,8.59,0,.07-.09.1-.13.04Z"/>
        <path class="st9" d="M42.37,25.94c-.91-.29-5.42-2.03-5.91-8.14,0-.08.06-.14.14-.12.9.29,5.51,2.05,6.36,7.75,0,.06-.07.09-.11.04l-4.7-5.79s-.14-.06-.11.09c.03.13,3.72,5.16,4.39,6.08.04.05,0,.11-.06.09Z"/>
        <path class="st9" d="M37.07,23.69c-.49-.1-2.89-.72-3.04-3.87,0-.04.04-.08.08-.07.48.1,2.94.73,3.29,3.64,0,.03-.04.05-.06.03l-2.43-2.72s-.08-.02-.06.05c.01.07,1.91,2.46,2.25,2.89.02.02,0,.06-.03.05Z"/>
        <path class="st9" d="M42.02,31.59c-.94-.15-5.55-1.17-6.06-7.16,0-.08.06-.15.14-.14.93.15,5.65,1.18,6.52,6.7,0,.06-.07.1-.11.06l-4.82-5.02s-.15-.04-.11.1c.03.12,3.82,4.54,4.5,5.35.04.05,0,.11-.06.1Z"/>
        <path class="st9" d="M34.53,28.81c-.64-.39-3.69-2.51-2.28-7.02.02-.06.09-.09.15-.06.63.39,3.77,2.55,2.75,6.83-.01.05-.08.06-.1,0l-2.01-5.09s-.09-.07-.11.04c-.02.1,1.42,4.45,1.68,5.24.01.04-.03.08-.07.06Z"/>
        <path class="st9" d="M41.58,38.95c-.87-.31-5.07-2.15-4.45-7.95,0-.08.09-.13.16-.1.86.31,5.17,2.17,4.97,7.59,0,.06-.09.09-.12.04l-3.66-5.68s-.13-.06-.13.08c0,.12,2.79,5.04,3.3,5.93.03.05-.02.11-.08.09Z"/>
        <path class="st9" d="M40.56,47.1c-.7-.54-4.03-3.43-1.79-8.56.03-.07.12-.09.18-.05.69.53,4.11,3.48,2.37,8.39-.02.06-.1.06-.12,0l-1.72-6.25s-.1-.1-.14.04c-.03.12,1.11,5.42,1.31,6.38.01.05-.05.09-.09.06Z"/>
        <path class="st9" d="M35.99,41.72c-.31-.46-1.67-2.84.86-5.24.03-.03.09-.03.12.01.3.46,1.71,2.89-.47,5.27-.02.03-.08,0-.07-.03l.38-3.92s-.04-.08-.09-.01c-.05.06-.56,3.31-.66,3.9,0,.03-.05.04-.07.01Z"/>
        <path class="st9" d="M33.42,38.28c-.47-.71-2.59-4.42,1.1-8.4.05-.05.14-.05.18.01.46.71,2.65,4.49-.51,8.43-.04.04-.11.02-.11-.04l.42-6.27s-.06-.12-.14-.01c-.07.1-.71,5.31-.84,6.26,0,.05-.08.07-.1.02Z"/>
        <path class="st9" d="M30.93,34.66c-.73-.62-4.2-3.93-2.21-9.69.03-.08.11-.1.18-.05.72.61,4.28,3.99,2.78,9.5-.02.06-.1.06-.12,0l-2.03-7.08s-.11-.11-.14.04c-.02.13,1.37,6.13,1.62,7.22.01.06-.05.1-.09.06Z"/>
        <path class="st9" d="M28.19,35.15c-.77-.11-4.56-.92-5.03-5.82,0-.07.05-.12.12-.11.76.11,4.65.92,5.4,5.44,0,.05-.06.09-.09.05l-3.99-4.07s-.12-.03-.09.09c.03.1,3.17,3.69,3.73,4.35.03.04,0,.09-.05.08Z"/>
        <path class="st9" d="M30.96,26.13c-.25-.15-1.45-.96-.92-2.73,0-.02.04-.04.06-.02.25.15,1.48.97,1.1,2.65,0,.02-.03.02-.04,0l-.81-1.97s-.04-.03-.04.02c0,.04.57,1.73.68,2.03,0,.02-.01.03-.03.02Z"/>
        <path class="st9" d="M27.35,30.05c-.33-.13-1.95-.87-1.67-3.1,0-.03.04-.05.06-.04.33.13,1.98.88,1.87,2.97,0,.02-.03.03-.05.01l-1.38-2.22s-.05-.03-.05.03c0,.05,1.05,1.97,1.23,2.32.01.02,0,.04-.03.03Z"/>
        <path class="st9" d="M24.03,34.32c-.43.15-2.64.78-4.24-1.65-.02-.03,0-.08.03-.09.43-.15,2.68-.8,4.33,1.35.02.02,0,.06-.03.05l-3.21-1.03s-.07.02-.02.07c.04.05,2.68,1.06,3.15,1.24.03.01.03.05,0,.06Z"/>
        <path class="st9" d="M28.88,37.96c-.79.51-4.88,2.77-9.18-1.32-.06-.06-.05-.15.02-.2.78-.5,4.95-2.84,9.21.68.05.04.02.12-.05.12l-6.85-.55s-.13.07-.01.15c.1.07,5.8.86,6.84,1.01.06,0,.07.08.02.12Z"/>
        <path class="st9" d="M25.82,42.32c-.67.24-4.1,1.23-6.6-2.56-.03-.05-.01-.12.05-.14.67-.24,4.17-1.26,6.74,2.09.03.04,0,.09-.05.08l-5-1.58s-.11.03-.04.11c.07.07,4.17,1.63,4.91,1.92.04.02.04.07,0,.09Z"/>
        <path class="st9" d="M32.27,41.04c-.57.34-3.52,1.87-6.5-1.12-.04-.04-.03-.11.02-.14.57-.34,3.57-1.92,6.53.66.03.03,0,.09-.03.08l-4.86-.53s-.1.05-.01.11c.07.05,4.1.72,4.84.85.04,0,.05.06.01.08Z"/>
        <path class="st9" d="M34.43,43.61c-.35.22-2.14,1.19-4-.62-.03-.02-.02-.07,0-.09.34-.21,2.18-1.22,4.02.34.02.02,0,.05-.02.05l-2.99-.27s-.06.03,0,.07c.05.03,2.53.4,2.98.47.03,0,.03.04,0,.05Z"/>
        <path class="st9" d="M30.71,47.98c-.65-.14-3.85-1.05-3.95-5.27,0-.06.05-.1.11-.09.64.14,3.92,1.06,4.29,4.97,0,.04-.05.07-.08.04l-3.17-3.72s-.1-.03-.08.07c.02.09,2.49,3.34,2.93,3.94.02.03,0,.08-.05.07Z"/>
        <path class="st9" d="M37.22,50.24c-.74-.09-4.38-.75-4.95-5.42,0-.06.05-.12.11-.11.73.09,4.46.75,5.3,5.04,0,.05-.05.08-.09.05l-3.92-3.78s-.11-.03-.08.09c.03.1,3.12,3.44,3.68,4.05.03.03,0,.09-.04.08Z"/>
        <path class="st9" d="M26.76,47.32c-.76.25-4.59,1.28-7.27-3-.04-.06,0-.14.06-.16.75-.25,4.67-1.32,7.43,2.48.03.04-.01.11-.06.09l-5.52-1.88s-.12.03-.04.12c.07.08,4.59,1.92,5.41,2.25.05.02.04.08,0,.1Z"/>
        <path class="st9" d="M22.54,48.3c-.27.2-1.65,1.11-3.27-.22-.02-.02-.02-.05,0-.07.26-.2,1.67-1.13,3.27,0,.02.01,0,.04-.01.04h-2.43s-.04.02,0,.04c.04.02,2.07.15,2.44.17.02,0,.03.03.01.04Z"/>
        <path class="st9" d="M29.96,50.64c-.72.6-4.47,3.38-9.27-.12-.06-.05-.07-.15,0-.2.71-.59,4.54-3.45,9.22-.52.05.03.03.12-.03.12l-6.86.34s-.12.08,0,.15c.11.06,5.86.1,6.9.11.06,0,.08.07.04.11Z"/>
        <path class="st9" d="M35.82,54.7c-.76.57-4.74,3.18-9.42-.65-.06-.05-.06-.15,0-.2.76-.56,4.81-3.25,9.4,0,.05.04.03.12-.04.12l-7-.04s-.13.08,0,.15c.11.07,5.95.43,7.01.5.06,0,.08.08.03.11Z"/>
        <path class="st9" d="M25.29,54.73c-.54.23-3.33,1.23-5.59-1.76-.03-.04-.02-.1.03-.12.54-.23,3.38-1.27,5.68,1.36.03.03,0,.08-.04.07l-4.22-1.04s-.09.03-.02.09c.06.06,3.53,1.13,4.16,1.32.04.01.04.06,0,.07Z"/>
        <path class="st9" d="M40.78,67.44c-.62-.55-3.87-3.07-8.2-.12-.06.04-.07.13-.01.17.61.54,3.93,3.13,8.14.68.05-.03.03-.1-.02-.11l-6.06-.47s-.11-.08,0-.13c.1-.05,5.19.06,6.11.07.05,0,.08-.06.04-.1Z"/>
        <path class="st9" d="M40.57,63.93c-.47-.71-3.04-4.1-8.13-2.3-.07.02-.1.11-.06.17.47.7,3.08,4.18,7.92,2.85.06-.02.06-.1,0-.11l-5.91-2.08s-.09-.1.04-.13c.11-.02,5.15,1.44,6.06,1.7.05.01.09-.04.06-.09Z"/>
        <path class="st9" d="M38.94,58.83c-.62-.66-3.93-3.8-9.22-1.46-.07.03-.09.12-.04.18.62.66,3.98,3.88,9.07,2.03.06-.02.05-.1-.01-.12l-6.76-1.47s-.11-.1.03-.13c.12-.03,5.83.9,6.87,1.07.06,0,.09-.05.06-.09Z"/>
        <path class="st9" d="M40.91,72.71c-.31.13-1.79.89-1.43,2.98,0,.03.04.05.06.03.3-.13,1.82-.9,1.63-2.86,0-.02-.03-.03-.04-.01l-1.2,2.14s-.05.03-.05-.03c0-.05.9-1.89,1.06-2.22,0-.02-.01-.04-.03-.03Z"/>
        <path class="st9" d="M40.08,70.18c-.84-.04-5.03.03-6.54,5.14-.02.07.03.14.1.14.83.03,5.12-.02,6.85-4.66.02-.05-.04-.1-.09-.07l-5.08,3.5s-.13,0-.08-.11c.05-.1,4.12-3.27,4.86-3.85.04-.03.02-.1-.03-.1Z"/>
        <path class="st9" d="M34.35,70.42c-.76-.05-4.54-.04-5.98,4.55-.02.06.02.13.09.13.75.04,4.62.06,6.26-4.11.02-.05-.04-.09-.08-.07l-4.63,3.09s-.12,0-.07-.1c.05-.09,3.77-2.89,4.44-3.4.04-.03.02-.09-.03-.09Z"/>
        <path class="st9" d="M31.3,68.51c-.64-.26-3.9-1.36-6.47,2.18-.03.05-.02.12.04.14.63.26,3.97,1.39,6.59-1.72.03-.04,0-.09-.05-.08l-4.89,1.31s-.1-.03-.03-.11c.07-.07,4.09-1.39,4.82-1.64.04-.01.04-.07,0-.09Z"/>
        <path class="st9" d="M33.15,65.06c-.08-.41-.61-2.45-3.28-2.59-.04,0-.07.03-.06.07.08.41.61,2.5,3.08,2.8.03,0,.05-.03.02-.05l-2.31-2.07s-.02-.06.04-.05c.06.01,2.08,1.63,2.45,1.92.02.02.05,0,.04-.03Z"/>
        <path class="st9" d="M31.46,66.25c-.32-.53-2.1-3.07-5.85-1.87-.05.02-.07.08-.05.12.32.52,2.13,3.13,5.69,2.27.04,0,.05-.07,0-.08l-4.24-1.66s-.06-.08.04-.09c.08-.01,3.7,1.17,4.36,1.38.04.01.07-.03.05-.06Z"/>
        <path class="st9" d="M26.55,62.01c-.45-.57-2.9-3.25-7.07-1.31-.06.03-.07.1-.04.15.45.56,2.94,3.31,6.94,1.79.05-.02.04-.09,0-.1l-5.17-1.3s-.08-.08.03-.11c.09-.03,4.48.81,5.27.96.04,0,.07-.04.05-.08Z"/>
        <path class="st9" d="M27.17,57.04c-.62-.44-3.85-2.44-7.51.72-.05.04-.05.12,0,.16.62.43,3.91,2.5,7.51-.19.04-.03.02-.1-.03-.1l-5.59.18s-.1-.06,0-.12c.09-.05,4.74-.47,5.59-.55.05,0,.06-.06.02-.09Z"/>
        <path class="st9" d="M23.96,64.53c-.32-.34-2-1.91-4.55-.47-.03.02-.04.07-.02.1.31.33,2.03,1.95,4.49.78.03-.01.02-.06,0-.06l-3.34-.56s-.06-.05.01-.07c.06-.02,2.88.29,3.39.34.03,0,.05-.03.03-.05Z"/>
        <path class="st9" d="M27.89,71.94c-.5-.03-3.01,0-3.93,3.04-.01.04.02.08.06.09.5.02,3.06.01,4.12-2.75.01-.03-.02-.06-.05-.04l-3.05,2.07s-.08,0-.05-.07c.03-.06,2.48-1.93,2.92-2.27.02-.02.01-.06-.02-.06Z"/>
        <path class="st9" d="M23.88,71.88c-.52-.04-3.12-.05-4.12,3.1-.01.04.02.09.06.09.51.03,3.17.06,4.31-2.79.01-.03-.02-.06-.05-.05l-3.19,2.1s-.08,0-.05-.07c.03-.06,2.6-1.97,3.06-2.32.03-.02.01-.06-.02-.06Z"/>
        <path class="st9" d="M23.37,69.93c-.39-.18-2.39-.96-4.09,1.16-.02.03-.01.07.02.09.39.18,2.43.99,4.15-.87.02-.02,0-.06-.03-.05l-3.08.67s-.06-.02-.02-.07c.04-.04,2.59-.74,3.05-.88.03,0,.03-.04,0-.05Z"/>
        <path class="st9" d="M26.57,67.21c-.57-.44-3.56-2.47-7.15.38-.05.04-.05.11,0,.15.57.44,3.62,2.52,7.14.11.04-.03.02-.09-.03-.09l-5.31-.05s-.1-.06,0-.12c.09-.05,4.52-.26,5.33-.3.05,0,.06-.06.03-.09Z"/>
        <path class="st9" d="M31.47,60.32c-.36-.39-2.3-2.23-5.26-.58-.04.02-.05.08-.02.11.36.39,2.33,2.27,5.19.94.03-.02.03-.07,0-.07l-3.87-.67s-.06-.06.01-.08c.07-.03,3.33.35,3.92.42.03,0,.05-.04.03-.06Z"/>
      </g>
    </g>
  </g>
  <g>
    <path class="st9" d="M112.25,42.77l-2.79-10.99h1.5l1.3,5.56c.33,1.37.62,2.74.81,3.8h.03c.18-1.09.52-2.4.9-3.81l1.47-5.54h1.48l1.34,5.58c.31,1.3.6,2.61.77,3.77h.03c.23-1.21.54-2.43.88-3.8l1.45-5.54h1.45l-3.11,10.99h-1.48l-1.39-5.72c-.34-1.4-.57-2.48-.72-3.59h-.03c-.2,1.09-.44,2.17-.85,3.59l-1.56,5.72h-1.48v-.02Z"/>
    <path class="st9" d="M124.46,39.09c.03,1.94,1.27,2.74,2.71,2.74,1.03,0,1.65-.18,2.18-.41l.24,1.03c-.51.23-1.37.49-2.62.49-2.43,0-3.88-1.6-3.88-3.98s1.4-4.25,3.7-4.25c2.58,0,3.26,2.27,3.26,3.72,0,.29-.03.52-.05.67h-5.54,0ZM128.66,38.06c.02-.91-.37-2.33-1.99-2.33-1.45,0-2.09,1.34-2.2,2.33,0,0,4.19,0,4.19,0Z"/>
    <path class="st9" d="M131.82,31.2h1.43v11.57h-1.43v-11.57Z"/>
    <path class="st9" d="M135.67,31.2h1.43v11.57h-1.43v-11.57Z"/>
    <path class="st9" d="M139.45,42.77c.03-.54.07-1.34.07-2.04v-9.54h1.42v4.96h.03c.51-.88,1.42-1.45,2.69-1.45,1.96,0,3.34,1.63,3.33,4.03,0,2.82-1.78,4.22-3.54,4.22-1.14,0-2.05-.44-2.64-1.48h-.05l-.07,1.3s-1.24,0-1.24,0ZM140.93,39.61c0,.18.03.36.07.52.28,1,1.11,1.68,2.15,1.68,1.5,0,2.4-1.22,2.4-3.03,0-1.58-.81-2.93-2.35-2.93-.98,0-1.89.67-2.18,1.76-.03.16-.08.36-.08.59v1.42h0Z"/>
    <path class="st9" d="M149.58,39.09c.03,1.94,1.27,2.74,2.71,2.74,1.03,0,1.65-.18,2.18-.41l.24,1.03c-.51.23-1.37.49-2.62.49-2.43,0-3.88-1.6-3.88-3.98s1.4-4.25,3.7-4.25c2.58,0,3.26,2.27,3.26,3.72,0,.29-.03.52-.05.67h-5.54ZM153.79,38.06c.02-.91-.37-2.33-1.99-2.33-1.45,0-2.09,1.34-2.2,2.33,0,0,4.19,0,4.19,0Z"/>
    <path class="st9" d="M158.54,32.66c.02.49-.34.88-.91.88-.51,0-.86-.39-.86-.88s.37-.9.9-.9.88.39.88.9h0ZM156.95,42.77v-7.89h1.43v7.89h-1.43Z"/>
    <path class="st9" d="M160.76,37.02c0-.81-.02-1.48-.07-2.14h1.27l.08,1.3h.03c.39-.75,1.3-1.48,2.61-1.48,1.09,0,2.79.65,2.79,3.36v4.71h-1.43v-4.55c0-1.27-.47-2.33-1.83-2.33-.95,0-1.68.67-1.92,1.47-.07.18-.1.42-.1.67v4.74h-1.43s0-5.75,0-5.75Z"/>
    <path class="st9" d="M176.6,34.88c-.03.57-.07,1.21-.07,2.17v4.58c0,1.81-.36,2.92-1.12,3.6-.77.72-1.87.95-2.87.95s-1.99-.23-2.62-.65l.36-1.09c.52.33,1.34.62,2.31.62,1.47,0,2.54-.77,2.54-2.75v-.88h-.03c-.44.73-1.29,1.32-2.51,1.32-1.96,0-3.36-1.66-3.36-3.85,0-2.67,1.74-4.19,3.55-4.19,1.37,0,2.12.72,2.46,1.37h.03l.07-1.19h1.26,0ZM175.12,37.99c0-.25-.02-.46-.08-.65-.26-.83-.96-1.52-2.01-1.52-1.37,0-2.35,1.16-2.35,2.98,0,1.55.78,2.84,2.33,2.84.88,0,1.68-.55,1.99-1.47.08-.24.11-.52.11-.77v-1.42h0Z"/>
    <path class="st9" d="M111.12,46.2c.86-.13,1.89-.23,3.02-.23,2.04,0,3.49.47,4.45,1.37.98.9,1.55,2.17,1.55,3.94s-.55,3.26-1.58,4.27c-1.03,1.03-2.72,1.58-4.86,1.58-1.01,0-1.86-.05-2.58-.13v-10.81h0ZM112.54,55.92c.36.07.88.08,1.43.08,3.03,0,4.68-1.69,4.68-4.66.02-2.59-1.45-4.24-4.45-4.24-.73,0-1.29.07-1.66.15v8.67Z"/>
    <path class="st9" d="M122.79,53.36c.03,1.94,1.27,2.74,2.71,2.74,1.03,0,1.65-.18,2.18-.41l.24,1.03c-.51.23-1.37.49-2.62.49-2.43,0-3.88-1.6-3.88-3.98s1.4-4.25,3.7-4.25c2.58,0,3.26,2.27,3.26,3.72,0,.29-.03.52-.05.67h-5.54,0ZM126.99,52.33c.02-.91-.37-2.33-1.99-2.33-1.45,0-2.09,1.34-2.2,2.33,0,0,4.19,0,4.19,0Z"/>
    <path class="st9" d="M129.96,55.57c.42.28,1.17.57,1.89.57,1.04,0,1.53-.52,1.53-1.17s-.41-1.06-1.47-1.45c-1.42-.5-2.09-1.29-2.09-2.23,0-1.27,1.03-2.31,2.72-2.31.8,0,1.5.23,1.94.49l-.36,1.04c-.31-.2-.88-.46-1.61-.46-.85,0-1.32.49-1.32,1.08,0,.65.47.95,1.5,1.34,1.37.52,2.07,1.21,2.07,2.38,0,1.39-1.08,2.36-2.95,2.36-.86,0-1.66-.21-2.22-.54l.36-1.09h0Z"/>
    <path class="st9" d="M138.2,46.93c.02.49-.34.88-.91.88-.51,0-.86-.39-.86-.88s.37-.9.9-.9.88.39.88.9h0ZM136.6,57.04v-7.89h1.43v7.89h-1.43Z"/>
    <path class="st9" d="M147.21,49.15c-.03.57-.07,1.21-.07,2.17v4.58c0,1.81-.36,2.92-1.12,3.6-.77.72-1.87.95-2.87.95s-1.99-.23-2.62-.65l.36-1.09c.52.33,1.34.62,2.31.62,1.47,0,2.54-.77,2.54-2.75v-.88h-.03c-.44.73-1.29,1.32-2.51,1.32-1.96,0-3.36-1.66-3.36-3.85,0-2.67,1.74-4.19,3.55-4.19,1.37,0,2.12.72,2.46,1.37h.03l.07-1.19h1.26,0ZM145.73,52.26c0-.25-.02-.46-.08-.65-.26-.83-.96-1.52-2.01-1.52-1.37,0-2.35,1.16-2.35,2.98,0,1.55.78,2.84,2.33,2.84.88,0,1.68-.55,1.99-1.47.08-.24.11-.52.11-.77v-1.42h0Z"/>
    <path class="st9" d="M149.43,51.29c0-.81-.02-1.48-.07-2.14h1.27l.08,1.3h.03c.39-.75,1.3-1.48,2.61-1.48,1.09,0,2.79.65,2.79,3.36v4.71h-1.43v-4.55c0-1.27-.47-2.33-1.83-2.33-.95,0-1.68.67-1.92,1.47-.07.18-.1.42-.1.67v4.74h-1.43v-5.75Z"/>
    <path class="st9" d="M158.28,55.57c.42.28,1.17.57,1.89.57,1.04,0,1.53-.52,1.53-1.17s-.41-1.06-1.47-1.45c-1.42-.5-2.09-1.29-2.09-2.23,0-1.27,1.03-2.31,2.72-2.31.8,0,1.5.23,1.94.49l-.36,1.04c-.31-.2-.88-.46-1.61-.46-.85,0-1.32.49-1.32,1.08,0,.65.47.95,1.5,1.34,1.37.52,2.07,1.21,2.07,2.38,0,1.39-1.08,2.36-2.95,2.36-.86,0-1.66-.21-2.22-.54l.36-1.09h0Z"/>
  </g>
</svg>